<?xml version="1.0" encoding="UTF-8"?>
<svg id="Layer_1" data-name="Layer 1" xmlns="http://www.w3.org/2000/svg" viewBox="0 0 1200 1200">
  <defs>
    <style>
      .cls-1 {
        fill: #fffaec;
      }

      .cls-2 {
        fill: #cb4b10;
      }
    </style>
  </defs>
  <path class="cls-2" d="M600,75.59c-289.62,0-524.41,234.79-524.41,524.41s234.79,524.41,524.41,524.41,524.41-234.79,524.41-524.41S889.62,75.59,600,75.59Z"/>
  <path class="cls-1" d="M483.5,671.89c-5,.02-9.07-4.03-9.09-9.03l-.49-145.36c-.02-5,4.03-9.07,9.03-9.09l51.6,.23v.05h79.1c5.25,0,9.53-4.22,9.59-9.47l1.78-162.27c.06-5.36-4.27-9.72-9.62-9.69l-76.98-.09h0s-64.97-.1-64.97-.1c-6.42,0-12.56,2.57-17.05,7.15l-163.76,163.14c-2.54,2.56-3.96,6.02-3.95,9.62l.57,166.7c.01,3.6,1.45,7.06,4.01,9.6l2.02,2.01,167.17,167.64c2.56,2.54,6.02,3.96,9.62,3.95l64.7-.2v-.03l177.13-.54c5-.02,9.05-4.08,9.03-9.09l1.41-70.74c-.52-15.38,9.93-17.12,15.41-11.4l89.3,89.72c6,4.43,14.48,.13,14.44-7.33l.14-511.3c-.02-5-4.09-9.03-9.09-9.01l-174.96,.49c-5,.02-9.05,4.08-9.03,9.09l.1,325.72c.02,5-4.03,9.07-9.03,9.09l-108.72,.34-49.43,.21Z"/>
</svg>