<?xml version="1.0" encoding="UTF-8"?>
<svg id="Layer_1" data-name="Layer 1" xmlns="http://www.w3.org/2000/svg" viewBox="0 0 784.58 191.88">
  <defs>
    <style>
      .cls-1 {
        fill: #cb4b10;
      }
    </style>
  </defs>
  <path class="cls-1" d="M60.47,115.37c-1.23,0-2.23-.99-2.23-2.22l-.12-35.69c0-1.23,.99-2.23,2.22-2.23l12.67,.06h0s19.42,.01,19.42,.01c1.29,0,2.34-1.04,2.35-2.33l.44-39.84c.01-1.31-1.05-2.39-2.36-2.38l-18.9-.02h0s-15.95-.03-15.95-.03c-1.58,0-3.08,.63-4.19,1.76L13.61,72.53c-.62,.63-.97,1.48-.97,2.36l.14,40.93c0,.88,.36,1.73,.98,2.36l.5,.49,41.04,41.16c.63,.62,1.48,.97,2.36,.97l15.88-.05h0s43.48-.14,43.48-.14c1.23,0,2.22-1,2.22-2.23l.35-17.37c-.13-3.77,2.44-4.2,3.78-2.8l21.92,22.03c1.47,1.09,3.55,.03,3.55-1.8l.03-125.52c0-1.23-1-2.22-2.23-2.21l-42.95,.12c-1.23,0-2.22,1-2.22,2.23l.02,79.96c0,1.23-.99,2.23-2.22,2.23l-26.69,.08-12.13,.05Z"/>
  <g>
    <path class="cls-1" d="M259.78,31.2h43.82l62.95,129.99h-37.14l-13.74-28.97h-67.96l-13.74,28.97h-37.14L259.78,31.2Zm47.35,83.19l-24.7-51.99h-1.49l-24.7,51.99h50.88Z"/>
    <path class="cls-1" d="M381.98,31.2h33.42v101.95h87.09v28.04h-120.52V31.2Z"/>
    <path class="cls-1" d="M520.51,31.2h111.42v25.81h-77.99v30.08h70.57v18.01h-70.57v30.27h81.71v25.81h-115.13V31.2Z"/>
    <path class="cls-1" d="M660.52,31.2h111.42v28.04h-77.99v33.98h69.64v18.01h-69.64v49.95h-33.43V31.2Z"/>
  </g>
</svg>