<svg width="106" height="13" viewBox="0 0 106 13" fill="none" xmlns="http://www.w3.org/2000/svg">
<path d="M100.116 0.948352C102.463 0.948352 103.123 1.8978 103.123 3.69121C103.123 5.43187 102.384 6.27582 100.459 6.27582H98.5601V0.948352H100.116ZM96.0019 12.289H99.3777V12.1044C98.6129 11.8934 98.5865 11.656 98.5865 8.67582V6.53956H99.1404C100.433 6.53956 100.776 6.75055 101.277 9.44066C101.725 11.7615 102.727 12.4209 104.099 12.4209C105.074 12.4209 105.523 12.0516 105.76 11.7615L105.628 11.6297C105.47 11.7879 105.259 11.9725 104.837 11.9725C103.993 11.9725 103.545 11.2077 103.044 9.2033C102.595 7.48901 101.778 6.8033 100.406 6.59231H100.644C102.965 6.59231 104.916 5.59011 104.916 3.48022C104.916 1.73956 103.439 0.737363 100.222 0.737363H96.0283V0.948352C96.7931 1.15934 96.8195 1.3967 96.8195 4.37692V8.67582C96.8195 11.656 96.7667 11.867 96.0283 12.1044V12.289H96.0019ZM86.692 12.289H94.3931C94.7096 12.289 94.8151 12.289 94.8678 11.8143L95.0788 9.99451H94.7887C94.3404 11.7088 93.681 12.0253 91.8349 12.0253H89.2766V5.93297H90.0151C91.5711 5.93297 91.6503 6.48681 91.8085 7.17253H92.0459V4.42967H91.8085C91.6503 5.11538 91.5711 5.66923 90.0151 5.66923H89.2766V0.948352H91.6503C93.3118 0.948352 93.9184 1.29121 94.4722 2.79451H94.7623L94.4722 1.15934C94.3931 0.710989 94.314 0.684615 94.0766 0.684615H86.7184V0.895604C87.4832 1.13297 87.5096 1.37033 87.5096 4.32418V8.67582C87.5096 11.6297 87.4568 11.8407 86.7184 12.1044V12.289H86.692ZM81.0217 12.5C82.6041 12.5 84.2393 11.656 85.136 10.6538V10.1791C85.136 7.59451 85.3206 7.25165 85.9799 7.11978V6.90879H82.5514V7.11978C83.2898 7.25165 83.4217 7.59451 83.4217 9.38791V9.62527C83.4217 11.5505 82.5777 12.2363 80.9689 12.2363C78.7535 12.2363 77.4085 10.4956 77.4085 6.24945C77.4085 2.13516 78.9645 0.79011 80.9426 0.79011C82.6568 0.79011 83.8437 1.71319 84.3184 3.37473H84.5557V0.710989H84.3711C84.3184 0.974725 84.1338 1.10659 83.8964 1.10659C83.1052 1.10659 82.6568 0.526374 80.9689 0.526374C78.5689 0.526374 75.536 2.37253 75.536 6.40769C75.5623 9.94176 77.8832 12.5 81.0217 12.5ZM64.8546 12.289H66.9909V12.1044C65.9887 11.7352 65.9623 11.4714 65.9623 8.51758V1.10659L73.2942 12.3418H73.7953V4.48242C73.7953 1.52857 73.8481 1.29121 74.5865 0.921978V0.710989H72.4502V0.921978C73.4524 1.29121 73.4788 1.52857 73.4788 4.48242V9.49341L68.125 1.23846C67.8085 0.737363 67.7557 0.684615 67.3601 0.684615H64.8546V0.895604C65.6195 1.13297 65.6459 1.37033 65.6459 4.32418V8.51758C65.6459 11.4714 65.5931 11.7352 64.8546 12.1044V12.289ZM55.5711 8.57033L57.8129 2.3989L60.1865 8.57033H55.5711ZM53.4349 12.289H55.492V12.1044C54.5689 11.8143 54.6217 11.1549 54.9909 10.1791L55.4656 8.83407H60.2656L61.0568 10.9176C61.347 11.656 61.347 11.9725 60.7667 12.1044V12.3418H63.7733V12.1044C63.1931 11.8934 63.0349 11.4451 62.6393 10.3637L59.1843 1.05385C59.0788 0.763736 59.0524 0.710989 58.8415 0.710989H56.7316V0.921978C57.1008 1.0011 57.3382 1.15934 57.6283 1.87143L57.681 2.02967L54.7272 10.1791C54.1733 11.656 53.8832 11.9462 53.4612 12.1044V12.289H53.4349ZM47.7645 12.289H51.1404V12.1044C50.3755 11.867 50.3492 11.6297 50.3492 8.67582V0.948352H51.0876C52.7492 0.948352 53.5667 1.26484 53.9096 3.11099H54.1997L53.9887 1.15934C53.936 0.710989 53.8832 0.684615 53.5931 0.684615H45.3382C45.048 0.684615 44.9953 0.710989 44.9426 1.15934L44.7579 3.11099H45.048C45.3382 1.26484 46.2085 0.948352 47.8173 0.948352H48.5821V8.67582C48.5821 11.6297 48.5294 11.8407 47.7909 12.1044V12.289H47.7645ZM34.3404 12.289H37.7162V12.1044C36.9514 11.867 36.925 11.6297 36.925 8.67582V0.948352H37.6634C39.325 0.948352 40.1426 1.26484 40.4854 3.11099H40.7755L40.5645 1.15934C40.5118 0.710989 40.459 0.684615 40.1689 0.684615H31.8876C31.5975 0.684615 31.5448 0.710989 31.492 1.15934L31.3074 3.11099H31.5975C31.8876 1.26484 32.7579 0.948352 34.3667 0.948352H35.1316V8.67582C35.1316 11.6297 35.0788 11.8407 34.3404 12.1044V12.289ZM25.3733 0.948352C27.7206 0.948352 28.3799 1.8978 28.3799 3.69121C28.3799 5.43187 27.6415 6.27582 25.7162 6.27582H23.8173V0.948352H25.3733ZM21.2327 12.289H24.6085V12.1044C23.8437 11.8934 23.8173 11.656 23.8173 8.67582V6.53956H24.3711C25.6634 6.53956 26.0063 6.75055 26.5074 9.44066C26.9557 11.7615 27.9579 12.4209 29.3294 12.4209C30.3052 12.4209 30.7535 12.0516 30.9909 11.7615L30.859 11.6297C30.7008 11.7879 30.4898 11.9725 30.0678 11.9725C29.2239 11.9725 28.7755 11.2077 28.2744 9.2033C27.8261 7.48901 27.0085 6.8033 25.6371 6.59231H25.8744C28.1953 6.59231 30.147 5.59011 30.147 3.48022C30.147 1.73956 28.67 0.737363 25.4524 0.737363H21.2327V0.948352C21.9975 1.15934 22.0239 1.3967 22.0239 4.37692V8.67582C22.0239 11.656 21.9711 11.867 21.2327 12.1044V12.289ZM14.9294 12.2626C13.0568 12.2626 11.6327 10.522 11.6327 6.48681C11.6327 2.45165 13.1623 0.737363 14.9294 0.737363C16.7228 0.737363 18.2524 2.45165 18.2524 6.46044C18.2524 10.522 16.8283 12.2626 14.9294 12.2626ZM14.9294 12.5C17.514 12.5 20.1777 10.0209 20.1777 6.46044C20.1777 2.9 17.514 0.5 14.9294 0.5C12.3448 0.5 9.68102 2.9 9.68102 6.48681C9.68102 10.0473 12.3448 12.5 14.9294 12.5ZM4.35354 0.948352C5.77772 0.948352 7.01728 1.44945 7.01728 3.7967C7.01728 6.11758 5.83047 6.6978 4.32717 6.6978H2.82387V0.948352H4.35354ZM0.239258 12.289H3.72058V12.1044C2.87662 11.8934 2.82387 11.656 2.82387 8.67582V6.93516H4.37992C6.77992 6.93516 8.70519 5.88022 8.70519 3.63846C8.70519 1.44945 6.88541 0.710989 4.35354 0.710989H0.239258V0.921978C1.00409 1.13297 1.03047 1.37033 1.03047 4.35055V8.67582C1.03047 11.656 0.977719 11.867 0.239258 12.1044V12.289Z" fill="black"/>
</svg>
